<svg width="67" height="14" viewBox="0 0 67 14" fill="none" xmlns="http://www.w3.org/2000/svg">
<path d="M0.81 13C0.75 13 0.72 12.97 0.72 12.91L0.756 0.543999C0.756 0.495999 0.78 0.471999 0.828 0.471999H6.588C6.648 0.471999 6.678 0.495999 6.678 0.543999V2.578C6.678 2.626 6.654 2.65 6.606 2.65H2.916V5.44H6.606C6.654 5.44 6.678 5.47 6.678 5.53L6.696 7.564C6.696 7.612 6.666 7.636 6.606 7.636H2.916V12.91C2.916 12.97 2.886 13 2.826 13H0.81ZM10.9758 13.18C10.3278 13.18 9.73378 13.018 9.19378 12.694C8.66578 12.358 8.23978 11.92 7.91578 11.38C7.59178 10.828 7.42978 10.222 7.42978 9.562L7.44778 3.856C7.44778 3.196 7.60378 2.596 7.91578 2.056C8.23978 1.516 8.67178 1.084 9.21178 0.76C9.75178 0.436 10.3398 0.274 10.9758 0.274C11.6238 0.274 12.2118 0.436 12.7398 0.76C13.2678 1.084 13.6878 1.516 13.9998 2.056C14.3238 2.596 14.4858 3.196 14.4858 3.856L14.5038 9.562C14.5038 10.222 14.3418 10.828 14.0178 11.38C13.7058 11.92 13.2798 12.358 12.7398 12.694C12.2118 13.018 11.6238 13.18 10.9758 13.18ZM10.9758 11.002C11.3358 11.002 11.6478 10.858 11.9118 10.57C12.1878 10.27 12.3258 9.934 12.3258 9.562L12.3078 3.856C12.3078 3.46 12.1818 3.124 11.9298 2.848C11.6778 2.572 11.3598 2.434 10.9758 2.434C10.6038 2.434 10.2858 2.572 10.0218 2.848C9.75778 3.112 9.62578 3.448 9.62578 3.856V9.562C9.62578 9.958 9.75778 10.3 10.0218 10.588C10.2858 10.864 10.6038 11.002 10.9758 11.002ZM15.9443 13C15.8963 13 15.8723 12.97 15.8723 12.91L15.8903 0.561999C15.8903 0.501999 15.9203 0.471999 15.9803 0.471999H17.9783C18.0383 0.471999 18.0683 0.501999 18.0683 0.561999L18.0503 10.786H21.7583C21.8183 10.786 21.8483 10.816 21.8483 10.876V12.91C21.8483 12.97 21.8183 13 21.7583 13H15.9443ZM23.0986 13C23.0506 13 23.0266 12.97 23.0266 12.91L23.0446 0.561999C23.0446 0.501999 23.0746 0.471999 23.1346 0.471999H25.1326C25.1926 0.471999 25.2226 0.501999 25.2226 0.561999L25.2046 10.786H28.9126C28.9726 10.786 29.0026 10.816 29.0026 10.876V12.91C29.0026 12.97 28.9726 13 28.9126 13H23.0986ZM33.2648 13.18C32.6168 13.18 32.0228 13.018 31.4828 12.694C30.9548 12.358 30.5288 11.92 30.2048 11.38C29.8808 10.828 29.7188 10.222 29.7188 9.562L29.7368 3.856C29.7368 3.196 29.8928 2.596 30.2048 2.056C30.5288 1.516 30.9608 1.084 31.5008 0.76C32.0408 0.436 32.6288 0.274 33.2648 0.274C33.9128 0.274 34.5008 0.436 35.0288 0.76C35.5568 1.084 35.9768 1.516 36.2888 2.056C36.6128 2.596 36.7748 3.196 36.7748 3.856L36.7928 9.562C36.7928 10.222 36.6308 10.828 36.3068 11.38C35.9948 11.92 35.5688 12.358 35.0288 12.694C34.5008 13.018 33.9128 13.18 33.2648 13.18ZM33.2648 11.002C33.6248 11.002 33.9368 10.858 34.2008 10.57C34.4768 10.27 34.6148 9.934 34.6148 9.562L34.5968 3.856C34.5968 3.46 34.4708 3.124 34.2188 2.848C33.9668 2.572 33.6488 2.434 33.2648 2.434C32.8928 2.434 32.5748 2.572 32.3108 2.848C32.0468 3.112 31.9148 3.448 31.9148 3.856V9.562C31.9148 9.958 32.0468 10.3 32.3108 10.588C32.5748 10.864 32.8928 11.002 33.2648 11.002ZM39.501 13C39.453 13 39.423 12.97 39.411 12.91L37.287 0.543999C37.275 0.495999 37.293 0.471999 37.341 0.471999H39.357C39.405 0.471999 39.435 0.495999 39.447 0.543999L40.599 8.68L41.787 0.543999C41.799 0.495999 41.835 0.471999 41.895 0.471999H43.515C43.563 0.471999 43.593 0.495999 43.605 0.543999L44.775 8.68L45.945 0.543999C45.957 0.495999 45.987 0.471999 46.035 0.471999H48.033C48.093 0.471999 48.117 0.495999 48.105 0.543999L45.963 12.91C45.951 12.934 45.933 12.958 45.909 12.982C45.885 12.994 45.873 13 45.873 13H43.695C43.659 13 43.629 12.97 43.605 12.91L42.687 6.448L41.769 12.91C41.757 12.97 41.727 13 41.679 13H39.501ZM55.1492 13.18C54.5132 13.18 53.9252 13.018 53.3852 12.694C52.8452 12.358 52.4132 11.914 52.0892 11.362C51.7772 10.81 51.6212 10.204 51.6212 9.544L51.6572 0.543999C51.6572 0.495999 51.6812 0.471999 51.7292 0.471999H53.7452C53.7932 0.471999 53.8172 0.495999 53.8172 0.543999V9.544C53.8172 9.952 53.9432 10.3 54.1952 10.588C54.4592 10.864 54.7772 11.002 55.1492 11.002C55.5332 11.002 55.8512 10.864 56.1032 10.588C56.3672 10.3 56.4992 9.952 56.4992 9.544V0.543999C56.4992 0.495999 56.5232 0.471999 56.5712 0.471999H58.5872C58.6352 0.471999 58.6592 0.495999 58.6592 0.543999L58.6952 9.544C58.6952 10.216 58.5332 10.828 58.2092 11.38C57.8972 11.932 57.4712 12.37 56.9312 12.694C56.4032 13.018 55.8092 13.18 55.1492 13.18ZM63.1765 13.18C62.5285 13.18 61.9345 13.018 61.3945 12.694C60.8665 12.358 60.4405 11.92 60.1165 11.38C59.8045 10.828 59.6485 10.222 59.6485 9.562V8.734C59.6485 8.674 59.6785 8.644 59.7385 8.644H61.7545C61.8025 8.644 61.8265 8.674 61.8265 8.734V9.562C61.8265 9.958 61.9585 10.3 62.2225 10.588C62.4865 10.864 62.8045 11.002 63.1765 11.002C63.5485 11.002 63.8665 10.858 64.1305 10.57C64.3945 10.282 64.5265 9.946 64.5265 9.562C64.5265 9.118 64.2385 8.734 63.6625 8.41C63.4705 8.302 63.1705 8.134 62.7625 7.906C62.3545 7.678 61.9705 7.462 61.6105 7.258C60.9505 6.874 60.4585 6.394 60.1345 5.818C59.8225 5.23 59.6665 4.57 59.6665 3.838C59.6665 3.166 59.8285 2.566 60.1525 2.038C60.4765 1.498 60.9025 1.072 61.4305 0.76C61.9705 0.448 62.5525 0.291999 63.1765 0.291999C63.8125 0.291999 64.3945 0.454 64.9225 0.778C65.4625 1.09 65.8885 1.516 66.2005 2.056C66.5245 2.584 66.6865 3.178 66.6865 3.838V5.314C66.6865 5.362 66.6625 5.386 66.6145 5.386H64.5985C64.5505 5.386 64.5265 5.362 64.5265 5.314L64.5085 3.838C64.5085 3.418 64.3765 3.076 64.1125 2.812C63.8485 2.548 63.5365 2.416 63.1765 2.416C62.8045 2.416 62.4865 2.56 62.2225 2.848C61.9585 3.124 61.8265 3.454 61.8265 3.838C61.8265 4.234 61.9105 4.564 62.0785 4.828C62.2465 5.092 62.5525 5.344 62.9965 5.584C63.0565 5.62 63.1705 5.686 63.3385 5.782C63.5185 5.866 63.7105 5.968 63.9145 6.088C64.1185 6.196 64.2985 6.292 64.4545 6.376C64.6225 6.46 64.7245 6.514 64.7605 6.538C65.3605 6.874 65.8345 7.288 66.1825 7.78C66.5305 8.26 66.7045 8.854 66.7045 9.562C66.7045 10.246 66.5425 10.864 66.2185 11.416C65.9065 11.956 65.4805 12.388 64.9405 12.712C64.4125 13.024 63.8245 13.18 63.1765 13.18Z" fill="black"/>
</svg>
