<svg width="33" height="33" viewBox="0 0 33 33" fill="none" xmlns="http://www.w3.org/2000/svg">
<g clip-path="url(#clip0)">
<path d="M10.3815 29.9063C22.8312 29.9063 29.6426 19.5893 29.6426 10.6451C29.6426 10.3551 29.6362 10.0586 29.6233 9.76856C30.9483 8.81032 32.0918 7.62341 33 6.2636C31.766 6.81264 30.4558 7.17121 29.1141 7.32707C30.5268 6.48031 31.5845 5.15009 32.0912 3.58299C30.7623 4.37058 29.3089 4.92615 27.7935 5.2259C26.7724 4.14096 25.4224 3.4226 23.9521 3.18188C22.4818 2.94117 20.9731 3.19151 19.6594 3.89419C18.3456 4.59688 17.3 5.71278 16.684 7.06936C16.0681 8.42595 15.9162 9.94766 16.2519 11.3992C13.5609 11.2642 10.9284 10.5652 8.52497 9.34745C6.12154 8.12974 4.00083 6.42054 2.30033 4.33065C1.43605 5.82077 1.17158 7.58407 1.56067 9.26219C1.94976 10.9403 2.96321 12.4073 4.39506 13.365C3.32011 13.3309 2.26872 13.0415 1.32773 12.5207V12.6045C1.32677 14.1683 1.86738 15.6841 2.85768 16.8944C3.84797 18.1046 5.22682 18.9346 6.75984 19.2432C5.76408 19.5156 4.71898 19.5553 3.70541 19.3592C4.138 20.704 4.97966 21.8803 6.11293 22.7238C7.24621 23.5673 8.61454 24.0359 10.027 24.0643C7.62908 25.9478 4.66699 26.9695 1.61777 26.9647C1.07702 26.9638 0.536799 26.9307 0 26.8654C3.09768 28.8527 6.70111 29.9082 10.3815 29.9063Z" fill="black"/>
</g>
<defs>
<clipPath id="clip0">
<rect width="33" height="33" fill="white"/>
</clipPath>
</defs>
</svg>
