<svg width="38" height="38" viewBox="0 0 38 38" fill="none" xmlns="http://www.w3.org/2000/svg">
<path d="M37.6215 11.4001C37.6215 11.4001 37.2504 8.78015 36.1074 7.62976C34.6602 6.11569 33.0422 6.10827 32.3 6.01921C26.9859 5.63327 19.0074 5.63327 19.0074 5.63327H18.9926C18.9926 5.63327 11.0141 5.63327 5.7 6.01921C4.95781 6.10827 3.33984 6.11569 1.89258 7.62976C0.749609 8.78015 0.385937 11.4001 0.385937 11.4001C0.385937 11.4001 0 14.4801 0 17.5528V20.4325C0 23.5051 0.378516 26.5852 0.378516 26.5852C0.378516 26.5852 0.749609 29.2052 1.88516 30.3555C3.33242 31.8696 5.23242 31.8176 6.07852 31.9809C9.12148 32.2704 19 32.3594 19 32.3594C19 32.3594 26.9859 32.3446 32.3 31.9661C33.0422 31.877 34.6602 31.8696 36.1074 30.3555C37.2504 29.2052 37.6215 26.5852 37.6215 26.5852C37.6215 26.5852 38 23.5126 38 20.4325V17.5528C38 14.4801 37.6215 11.4001 37.6215 11.4001ZM15.0738 23.9282V13.2481L25.3383 18.6067L15.0738 23.9282Z" fill="black"/>
</svg>
